<svg fill="#000000" xmlns="http://www.w3.org/2000/svg"  viewBox="0 0 32 32" width="32px" height="32px"><path d="M 16 4 C 9.371094 4 4 9.371094 4 16 C 4 22.628906 9.371094 28 16 28 C 22.628906 28 28 22.628906 28 16 C 28 9.371094 22.628906 4 16 4 Z M 15.21875 4.90625 L 16 7.21875 L 16.78125 4.90625 L 17.90625 5.03125 L 18 8.3125 L 17.15625 8.1875 L 17.0625 6 L 16.3125 8.1875 L 15.6875 8.1875 L 14.9375 6 L 14.84375 8.1875 L 14 8.3125 L 14.09375 5.03125 Z M 23.1875 7.4375 L 23.8125 8 L 22.65625 9.5 L 24.5 8.65625 L 25.03125 9.3125 L 23.8125 10.9375 L 25.53125 10.125 L 25.9375 10.84375 L 22.96875 12.21875 L 22.5625 11.5 L 24 9.59375 L 21.8125 10.59375 L 21.21875 10.03125 Z M 8.65625 7.8125 C 8.878906 7.796875 9.117188 7.871094 9.28125 8.03125 C 9.386719 8.136719 9.464844 8.261719 9.5 8.40625 C 9.535156 8.554688 9.511719 8.699219 9.46875 8.84375 C 9.488281 8.828125 9.511719 8.828125 9.53125 8.8125 C 9.789063 8.632813 10.117188 8.585938 10.40625 8.71875 C 10.695313 8.851563 10.894531 9.09375 10.9375 9.40625 C 10.949219 9.523438 10.941406 9.667969 10.90625 9.78125 C 10.839844 10 10.671875 10.136719 10.53125 10.3125 C 10.257813 10.652344 9.992188 11.003906 9.71875 11.34375 C 9.492188 11.628906 9.257813 11.902344 9.03125 12.1875 C 9.015625 12.207031 9.015625 12.230469 9 12.25 C 8.996094 12.253906 8.972656 12.253906 8.96875 12.25 C 8.882813 12.183594 8.804688 12.097656 8.71875 12.03125 C 8.386719 11.765625 8.046875 11.515625 7.71875 11.25 C 7.382813 10.980469 7.054688 10.707031 6.71875 10.4375 C 6.628906 10.367188 6.527344 10.289063 6.4375 10.21875 C 6.449219 10.203125 6.457031 10.167969 6.46875 10.15625 C 6.695313 9.871094 6.929688 9.566406 7.15625 9.28125 C 7.421875 8.949219 7.671875 8.644531 7.9375 8.3125 C 7.988281 8.25 8.042969 8.1875 8.09375 8.125 C 8.183594 8.011719 8.304688 7.925781 8.4375 7.875 C 8.507813 7.847656 8.582031 7.816406 8.65625 7.8125 Z M 8.5 8.65625 C 8.394531 8.699219 8.316406 8.789063 8.25 8.875 C 7.992188 9.195313 7.757813 9.523438 7.5 9.84375 C 7.496094 9.847656 7.4375 9.90625 7.4375 9.90625 C 7.492188 9.949219 7.539063 9.988281 7.59375 10.03125 C 7.730469 10.140625 7.863281 10.265625 8 10.375 C 8.136719 10.207031 8.269531 10.042969 8.40625 9.875 C 8.542969 9.707031 8.675781 9.542969 8.8125 9.375 C 8.878906 9.289063 8.96875 9.199219 9 9.09375 C 9.027344 8.972656 8.988281 8.839844 8.90625 8.75 C 8.804688 8.636719 8.640625 8.597656 8.5 8.65625 Z M 16 9 C 19.867188 9 23 12.132813 23 16 C 23 19.867188 19.867188 23 16 23 C 12.132813 23 9 19.867188 9 16 C 9 12.132813 12.132813 9 16 9 Z M 9.75 9.375 C 9.625 9.378906 9.511719 9.46875 9.4375 9.5625 C 9.332031 9.695313 9.230469 9.804688 9.125 9.9375 L 8.46875 10.75 C 8.582031 10.839844 8.699219 10.941406 8.8125 11.03125 L 9 11.1875 C 9.011719 11.199219 9.050781 11.207031 9.0625 11.21875 C 9.300781 10.917969 9.542969 10.609375 9.78125 10.3125 C 9.867188 10.203125 9.945313 10.078125 10.03125 9.96875 C 10.121094 9.859375 10.148438 9.722656 10.09375 9.59375 C 10.03125 9.460938 9.902344 9.371094 9.75 9.375 Z M 16 10 C 12.726563 10.085938 10.085938 12.726563 10 16 L 16 16 Z M 16 16 L 16 22 C 19.277344 21.914063 21.914063 19.273438 22 16 Z"/></svg>